<?xml version="1.0" encoding="UTF-8"?>
<svg version="1.1" xmlns="http://www.w3.org/2000/svg" width="1024" height="1024">
<path d="M0 0 C337.92 0 675.84 0 1024 0 C1024 337.92 1024 675.84 1024 1024 C686.08 1024 348.16 1024 0 1024 C0 686.08 0 348.16 0 0 Z " fill="#010202" transform="translate(0,0)"/>
<path d="M0 0 C99.33 0 198.66 0 301 0 C301 337.92 301 675.84 301 1024 C197.71 1024 94.42 1024 -12 1024 C-12.33 1012.12 -12.66 1000.24 -13 988 C-15.75949343 979.41121098 -15.75949343 979.41121098 -19.32421875 977.66015625 C-20.10410156 977.46292969 -20.88398437 977.26570312 -21.6875 977.0625 C-23.94506836 975.98974609 -23.94506836 975.98974609 -26 974 C-26.49259512 971.21639467 -26.70577946 968.86193983 -26.7421875 966.06640625 C-26.76898087 965.27295807 -26.79577423 964.47950989 -26.82337952 963.66201782 C-26.90382435 961.10808542 -26.95368786 958.55476064 -27 956 C-27.04136385 954.33306318 -27.0837549 952.66615152 -27.12719727 950.99926758 C-27.271692 945.09250026 -27.38741138 939.18520459 -27.47680664 933.27734375 C-27.51667976 930.74456486 -27.5680662 928.2122206 -27.62109375 925.6796875 C-27.6295079 924.92436737 -27.63792206 924.16904724 -27.64659119 923.39083862 C-27.76351017 918.3176516 -28.49478619 913.85912193 -30 909 C-33.77664968 905.55145113 -38.27008807 905.31179626 -43.1875 904.875 C-43.96399902 904.79717285 -44.74049805 904.7193457 -45.54052734 904.63916016 C-54.00958446 903.82813019 -62.50233743 903.3816917 -71 903 C-68.40199092 900.89705842 -65.8270841 898.88227003 -63.0625 897 C-55.57580355 890.72892695 -51.65343195 878.26576614 -50.66674805 868.80444336 C-50.48002204 864.97081695 -50.42359145 861.14949283 -50.4375 857.3125 C-50.43665405 856.58579102 -50.43580811 855.85908203 -50.43493652 855.11035156 C-50.4911338 831.68233018 -53.81440809 808.3805333 -56.61999512 785.15985107 C-57.47671244 778.03599747 -58.29753091 770.90796663 -59.11730957 763.77978516 C-59.36642095 761.63631803 -59.62316933 759.49389486 -59.88183594 757.3515625 C-60.60912179 751.18918345 -61.20399429 745.20613394 -61 739 C-59.06953563 741.89569655 -57.64743689 744.71882413 -56.1640625 747.86328125 C-55.60106445 749.04817139 -55.03806641 750.23306152 -54.45800781 751.45385742 C-54.15979126 752.0823056 -53.86157471 752.71075378 -53.55432129 753.35824585 C-48.58046412 763.81768667 -43.44967416 774.13682389 -37.81835938 784.26147461 C-34.72321482 789.830818 -31.70107841 795.43165071 -28.7421875 801.07421875 C-28.36765442 801.78818817 -27.99312134 802.50215759 -27.60723877 803.23776245 C-27.22767029 803.96141998 -26.84810181 804.68507751 -26.45703125 805.43066406 C-19.28329481 819.10757471 -11.92264353 832.59956156 -4.015625 845.87109375 C-3.51981934 846.72324463 -3.02401367 847.57539551 -2.51318359 848.45336914 C-1.49202394 850.17194228 -0.42550315 851.86424816 0.68115234 853.52905273 C5.68116407 861.51909232 5.96444697 869.05995614 6.125 878.1875 C6.48349078 893.83978683 7.39310847 909.7827883 18.66015625 921.765625 C27.9623896 930.49573921 39.8756931 930.17032039 51.99609375 929.921875 C52.68428696 929.90936203 53.37248016 929.89684906 54.08152771 929.88395691 C56.92501494 929.82961908 59.76763488 929.77228116 62.61010742 929.67773438 C64.71813795 929.61106222 66.82475875 929.57639891 68.93359375 929.546875 C70.17165771 929.51432617 71.40972168 929.48177734 72.68530273 929.44824219 C76.90677448 930.15093985 78.2505137 931.82249018 81 935 C83.18652075 936.16073304 83.18652075 936.16073304 85.4375 936.75 C86.15808594 936.97171875 86.87867188 937.1934375 87.62109375 937.421875 C106.78292916 942.07861004 131.30105355 939.81435971 148.29296875 929.625 C158.18692191 922.79390288 161.27632959 914.43068312 164 903 C164.69404324 898.92827966 165.09139598 894.8645515 165.4375 890.75 C165.67273591 888.25126051 165.90845447 885.75256644 166.14453125 883.25390625 C166.27565904 881.82048492 166.40667509 880.38705337 166.53759766 878.95361328 C167.39562971 869.65918552 168.35143884 860.37392187 169.28445435 851.08679199 C169.62084451 847.72897969 169.95430058 844.37088847 170.28686523 841.01269531 C170.3924324 839.95006973 170.49799957 838.88744415 170.60676575 837.7926178 C170.80556391 835.79141851 171.00367908 833.7901512 171.20097351 831.7888031 C171.72654442 826.51445844 172.31813967 821.25648825 173 816 C173.76183594 815.70867188 174.52367187 815.41734375 175.30859375 815.1171875 C194.04859093 807.67733843 208.0750497 794.70508506 216.6796875 776.3203125 C224.71899411 756.10312132 224.60277771 733.5248866 216.5625 713.40234375 C212.47260139 704.36720716 207.00614832 697.8322731 200 691 C199.35417969 690.34515625 198.70835937 689.6903125 198.04296875 689.015625 C194.88829479 686.01902839 192.62500525 684.18756312 188.36357784 682.90871525 C183.53281651 681.31481135 179.85741844 679.32271656 177 675 C174.14368926 664.974374 175.06877289 653.77295008 175.25901568 643.43539011 C175.32394341 639.01220184 175.30186211 634.58933291 175.29048157 630.165802 C175.28262507 622.50730063 175.32958534 614.8507196 175.41404915 607.19270134 C175.53608533 596.12091501 175.57503306 585.05005492 175.59386902 573.97766895 C175.62667899 556.01298819 175.7264475 538.0493305 175.8684082 520.08520508 C176.00614559 502.6373404 176.11229553 485.18975384 176.17602539 467.74145508 C176.17996624 466.66551419 176.1839071 465.58957329 176.18796737 464.48102813 C176.20754328 459.08321587 176.22649881 453.68540164 176.24514592 448.28758609 C176.40058574 403.52434884 176.66472782 358.76222728 177 314 C178.0919165 313.39599365 179.18383301 312.7919873 180.30883789 312.16967773 C181.75937806 311.36199726 183.2098119 310.5541258 184.66015625 309.74609375 C185.7365033 309.15169495 185.7365033 309.15169495 186.83459473 308.54528809 C205.04808223 298.37344333 216.31649155 283.75097936 222.33300781 263.96386719 C227.64591105 244.83585977 225.8903669 224.82944814 217 207 C216.51917969 206.01515625 216.03835938 205.0303125 215.54296875 204.015625 C207.026634 188.01900596 192.7336664 177.45648689 176 171 C173.66952599 170.32340577 171.33644162 169.65569004 169 169 C168.96685699 168.33173691 168.93371399 167.66347382 168.89956665 166.97496033 C168.54987525 159.94897977 168.19141926 152.92348338 167.828125 145.89819336 C167.69409135 143.28469837 167.5622095 140.67109203 167.43261719 138.05737305 C167.7195993 107.97933452 167.7195993 107.97933452 155.9453125 81.55859375 C141.80493011 70.22925123 121.3287466 68.52656116 103.89697266 70.20214844 C82.24141499 72.95783765 62.50915494 83.5308306 48.25 100.125 C25.59305302 131.11248721 23.94774701 186.80275012 17.42059326 223.63397217 C17.03746359 225.78925029 16.65094446 227.94387185 16.26220703 230.09814453 C14.15260492 241.80248365 12.18703451 253.50733073 10.5390625 265.28515625 C10.41147552 266.18880417 10.28388855 267.09245209 10.1524353 268.02348328 C9.52366094 272.48191009 8.90778752 276.94129265 8.31787109 281.4050293 C6.11553535 297.5773509 2.31145943 311.75250631 -5.625 326.125 C-6.87553824 328.45933806 -8.12313667 330.79503297 -9.3671875 333.1328125 C-9.98174805 334.28297852 -10.59630859 335.43314453 -11.22949219 336.61816406 C-13.87911273 341.67918774 -16.32362661 346.82914821 -18.75 352 C-22.02065761 358.93813604 -25.39455136 365.79198455 -29 372.5625 C-38.47587549 390.37955058 -47.1545659 408.40284292 -55 427 C-56.09164602 423.72506194 -55.92491563 422.79123851 -55.13671875 419.5390625 C-54.91483887 418.61246826 -54.69295898 417.68587402 -54.46435547 416.73120117 C-54.20799316 415.70615479 -53.95163086 414.6811084 -53.6875 413.625 C-53.41824707 412.53356689 -53.14899414 411.44213379 -52.87158203 410.31762695 C-51.92936026 406.54118752 -50.9670741 402.77012493 -50 399 C-49.82450623 398.3115802 -49.64901245 397.6231604 -49.46820068 396.91387939 C-41.17313745 364.39429523 -32.04832595 332.28094591 -17.0246582 302.15600586 C-12.35836136 292.33754806 -15.15114784 277.8250803 -15.9375 267.3125 C-16.4768508 259.90142052 -16.98901297 252.50008866 -17.31246948 245.07669067 C-17.87814793 232.3194978 -19.05698026 219.64301513 -20.3125 206.9375 C-20.42326874 205.80303436 -20.53403748 204.66856873 -20.64816284 203.49972534 C-22.55492596 183.97376559 -24.60054372 164.47167244 -27 145 C-27.16543929 143.62860936 -27.33063847 142.25718972 -27.49560547 140.88574219 C-27.97735064 136.90034215 -28.48631046 132.91891105 -29 128.9375 C-29.14187744 127.77162354 -29.28375488 126.60574707 -29.42993164 125.40454102 C-30.72594337 115.75234613 -33.17331851 104.79580707 -41.03125 98.328125 C-51.59624675 90.95871368 -64.54610593 86.91776947 -77 84 C-77 83.67 -77 83.34 -77 83 C-72.34546157 81.83739036 -67.80922296 81.81428135 -63.04296875 81.75390625 C-61.27278159 81.72096354 -59.50259942 81.68775196 -57.73242188 81.65429688 C-54.96121678 81.60698661 -52.19003127 81.56253593 -49.41870117 81.52319336 C-46.73074811 81.48321045 -44.04319597 81.431732 -41.35546875 81.37890625 C-40.53749313 81.3704921 -39.71951752 81.36207794 -38.87675476 81.35340881 C-33.62690298 81.24198242 -29.05241206 80.44432024 -24 79 C-22.10574697 71.84807616 -21.75397921 65.31511339 -21.875 57.9375 C-21.88402344 56.88111328 -21.89304687 55.82472656 -21.90234375 54.73632812 C-21.9256833 52.15730747 -21.95842225 49.5787801 -22 47 C-21.24581787 46.87447754 -20.49163574 46.74895508 -19.71459961 46.61962891 C-18.72468018 46.44866699 -17.73476074 46.27770508 -16.71484375 46.1015625 C-15.73378662 45.93479004 -14.75272949 45.76801758 -13.74194336 45.59619141 C-10.006474 44.78397378 -7.80649276 43.60113963 -5 41 C1.41565148 29.56842033 1.41565148 29.56842033 0 0 Z " fill="#FCFCFC" transform="translate(723,0)"/>
<path d="M0 0 C99.33 0 198.66 0 301 0 C301.33 11.88 301.66 23.76 302 36 C305.96752971 42.25435492 305.96752971 42.25435492 312 45 C313.56405552 45.22838642 315.13410637 45.41821437 316.70703125 45.57421875 C317.51245361 45.65631592 318.31787598 45.73841309 319.14770508 45.82299805 C320.06459106 45.91061401 320.06459106 45.91061401 321 46 C321.02505615 46.86278564 321.0501123 47.72557129 321.07592773 48.61450195 C321.17111385 51.81823769 321.27034444 55.02181537 321.37231445 58.2253418 C321.41560218 59.61135983 321.45728164 60.99742906 321.49731445 62.38354492 C321.55516584 64.37691798 321.61929776 66.37010565 321.68359375 68.36328125 C321.72025146 69.56251221 321.75690918 70.76174316 321.79467773 71.99731445 C321.87733025 75.04994349 321.87733025 75.04994349 323 78 C331.5448232 80.10995934 340.12158324 80.56608034 348.875 81 C358.36209253 81.47269797 367.65788493 82.17368854 377 84 C373.87475579 85.64671709 370.83489253 86.64279544 367.4152832 87.54614258 C348.9025401 92.45737769 348.9025401 92.45737769 335.03515625 104.65625 C331.52794373 112.59710853 329.17304049 121.12568791 328.60546875 129.796875 C328.5394043 130.73563477 328.47333984 131.67439453 328.40527344 132.64160156 C328.3334082 133.66737305 328.26154297 134.69314453 328.1875 135.75 C327.47058099 145.29138924 326.46236102 154.75978192 325.25 164.25 C320.60573926 200.91629864 316.44440496 238.05934308 315 275 C314.93425781 276.51062012 314.93425781 276.51062012 314.8671875 278.05175781 C314.37837572 290.51238489 315.38660385 300.32770633 320.23461914 311.96313477 C325.40206897 324.43887474 329.57025514 337.24918228 333.8125 350.0625 C334.40952728 351.86006241 334.40952728 351.86006241 335.01861572 353.69393921 C357.34615907 420.96152279 357.34615907 420.96152279 355 428 C348.03680222 413.59755377 341.07663272 399.19397941 334.19067383 384.75439453 C331.6528549 379.43816127 329.09726148 374.13092185 326.5234375 368.83203125 C320.9391331 357.32916926 315.37170447 345.8305999 310.20410156 334.13232422 C308.32076184 329.88198899 306.37451631 325.67452459 304.3359375 321.49609375 C303.88444336 320.56796875 303.43294922 319.63984375 302.96777344 318.68359375 C302.10689506 316.92301921 301.23841836 315.16612784 300.36035156 313.4140625 C294.4031495 301.21760308 292.90678202 288.48800715 291.125 275.1875 C287.33077585 247.10228136 282.42386735 219.22303632 277.1875 191.375 C277.05803356 190.68530373 276.92856712 189.99560745 276.79517746 189.28501129 C273.57031922 172.11042666 270.31565348 154.9435056 266.5625 137.875 C266.41332123 137.18444519 266.26414246 136.49389038 266.11044312 135.78240967 C262.67090633 119.97205132 258.38158248 105.17362322 246 94 C245.21109375 93.22269531 245.21109375 93.22269531 244.40625 92.4296875 C226.46646426 75.4781103 202.48849895 70.04808821 178.51171875 70.65234375 C165.62689828 71.26821918 152.17782844 75.19143148 143.0625 84.75 C131.85165331 98.96470992 133.54325297 119.67589377 132.9375 136.8125 C132.82121015 139.97843666 132.70276366 143.14426274 132.58070374 146.3099823 C132.50577623 148.26436372 132.43428374 150.21888118 132.3669281 152.17353821 C132.15526261 157.82737623 131.68999253 163.38383999 131 169 C129.97261719 169.42410156 128.94523438 169.84820312 127.88671875 170.28515625 C104.6914491 180.02705721 90.57913011 193.51574366 79.25390625 215.828125 C75.85324517 224.43042031 74.46630635 232.45366154 74.5625 241.6875 C74.57152344 242.73478271 74.58054687 243.78206543 74.58984375 244.86108398 C75.04862858 265.59720272 83.17425963 283.52108761 98 298 C105.75089075 305.06037321 113.67324324 309.91267813 123 315 C123 434.13 123 553.26 123 676 C118.38 678.31 113.76 680.62 109 683 C101.29228918 688.44073705 95.59405233 694.42667403 90 702 C89.03900391 703.29744141 89.03900391 703.29744141 88.05859375 704.62109375 C77.16419051 720.456803 74.53709992 740.30444233 77.75390625 759.03125 C78.63290641 763.41268596 79.73955992 767.71382303 81 772 C81.27714844 772.95132813 81.55429688 773.90265625 81.83984375 774.8828125 C87.1818293 790.19486324 99.01730026 801.72326372 112.625 809.8125 C113.54023437 810.37130859 114.45546875 810.93011719 115.3984375 811.50585938 C120.64833182 814.70675909 120.64833182 814.70675909 126.23730469 817.23730469 C129 819 129 819 129.89306641 822.13061523 C129.96187012 823.42684814 130.03067383 824.72308105 130.1015625 826.05859375 C130.14872406 826.77867111 130.19588562 827.49874847 130.24447632 828.24064636 C130.34416457 829.8113972 130.43074087 831.38302175 130.50585938 832.95513916 C130.62647621 835.46825765 130.78085971 837.97718304 130.9453125 840.48779297 C131.12003643 843.1588406 131.29273983 845.82984936 131.45562744 848.50164795 C132.05248223 858.26282208 132.87054868 868.00160716 133.74432373 877.7414856 C133.99497908 880.56837414 134.2316894 883.39618747 134.46728516 886.22436523 C136.31800938 907.76834551 136.31800938 907.76834551 148.1875 925.1875 C161.9494602 936.69709355 178.18649558 938.36683585 195.5 938.4375 C196.7880957 938.4475708 198.07619141 938.4576416 199.40332031 938.46801758 C211.59903829 938.36786227 211.59903829 938.36786227 221.77954102 932.41235352 C225.23061738 929.4603836 227.95134201 929.45859387 232.49609375 929.6171875 C233.20669449 929.63137726 233.91729523 929.64556702 234.64942932 929.66018677 C236.91351549 929.7077168 239.1745994 929.78834705 241.4375 929.875 C262.12366288 931.02344308 262.12366288 931.02344308 280.359375 922.859375 C289.53516105 912.46015081 291.27796833 901.5428451 291.6204834 888.13406372 C291.994931 875.86101501 292.7658031 865.61004596 299.64550781 855.15136719 C302.57958482 850.49111365 305.04139911 845.5474921 307.625 840.6875 C308.70031813 838.71212923 309.77584919 836.73687435 310.8515625 834.76171875 C321.7403715 814.53151771 332.07765772 794.01222323 342.33642578 773.45751953 C343.96071481 770.20310733 345.5887417 766.95058007 347.21771622 763.69851112 C348.493974 761.14960417 349.76833054 758.59975043 351.04210663 756.04960251 C351.93066179 754.27151365 352.82080964 752.49422097 353.71099854 750.71694946 C354.51389313 749.10643204 354.51389313 749.10643204 355.33300781 747.46337891 C355.80152161 746.52555573 356.2700354 745.58773254 356.75274658 744.62149048 C357.94538293 742.11479475 359.00051038 739.58898778 360 737 C361.05559363 740.30300206 360.93459005 742.78038263 360.43359375 746.1953125 C360.20434204 747.81904785 360.20434204 747.81904785 359.97045898 749.47558594 C359.79458252 750.67989258 359.61870605 751.88419922 359.4375 753.125 C359.05951519 755.84077751 358.68402145 758.55677886 358.3125 761.2734375 C358.21009506 762.01952271 358.10769012 762.76560791 358.00218201 763.53430176 C354.52557683 789.05210672 351.41608541 814.65970428 349.125 840.3125 C349.03277664 841.32020447 349.03277664 841.32020447 348.93869019 842.3482666 C347.29063597 860.58783064 346.4071408 879.06167019 357 895 C359.66526973 897.89848084 362.44866038 900.22433019 366 902 C366 902.66 366 903.32 366 904 C365.02651611 904.03440186 364.05303223 904.06880371 363.05004883 904.10424805 C359.42396119 904.23872175 355.79986549 904.40461585 352.17553711 904.57983398 C350.60949613 904.65118682 349.04304697 904.71411605 347.47631836 904.76831055 C345.21827601 904.84790493 342.96345685 904.95813874 340.70703125 905.07421875 C339.66298882 905.10113045 339.66298882 905.10113045 338.59785461 905.12858582 C335.0271111 905.34307604 333.02373539 905.98370792 330.06030273 908.01782227 C327.30254051 912.00953521 327.28596459 914.89475647 327.328125 919.640625 C327.31537537 920.48107361 327.30262573 921.32152222 327.28948975 922.18743896 C327.25327056 924.87529987 327.25048312 927.56191755 327.25 930.25 C327.22817202 932.88487925 327.19934922 935.51961626 327.1697998 938.15441895 C327.15037566 939.89292062 327.13319843 941.63144888 327.11828613 943.36999512 C327.05985494 949.06367074 326.87586511 954.73737012 326.546875 960.421875 C326.4893808 961.44260101 326.4893808 961.44260101 326.4307251 962.48394775 C326.18400577 966.37359959 325.84102345 970.19082725 325 974 C323.29296875 975.06640625 323.29296875 975.06640625 321.1875 975.5625 C317.10171103 976.80727442 315.27894072 978.26253721 313 982 C309.59585028 995.61659887 310.73769838 1009.98373084 310 1024 C207.7 1024 105.4 1024 0 1024 C0 686.08 0 348.16 0 0 Z " fill="#FCFCFC" transform="translate(0,0)"/>
<path d="M0 0 C0.69128872 -0.00058914 1.38257744 -0.00117828 2.0948143 -0.00178528 C25.3362618 -0.01566883 48.39636516 0.65954189 71.53100586 3.0189209 C73.86048614 3.25486023 76.19079314 3.48046396 78.52148438 3.70410156 C124.83264629 8.18982305 124.83264629 8.18982305 139.8125 15.25 C138.27744292 24.41069467 135.49562825 33.1666283 132.69873047 42.0012207 C127.55328183 58.31439729 126.18078379 74.37205724 125.1875 91.375 C125.12213043 92.48646393 125.05676086 93.59792786 124.9894104 94.74307251 C123.54509429 119.92549854 123.3402667 145.0357857 123.8125 170.25 C123.833125 171.37960144 123.85375 172.50920288 123.875 173.67303467 C124.38315677 200.26392551 125.52198037 226.72486754 128.25 253.1875 C128.35323578 254.19226379 128.45647156 255.19702759 128.56283569 256.23223877 C129.6436193 266.55033311 130.91752821 276.78634672 132.87608337 286.97825623 C133.48622467 290.1718864 133.8125 292.97509654 133.8125 296.25 C105.64914104 301.81262393 77.50112804 305.7395979 48.8125 307.25 C48.08557953 307.29203552 47.35865906 307.33407104 46.60971069 307.37738037 C26.58792393 308.51960504 6.54746343 308.49397666 -13.5 308.5 C-14.3994421 308.50058914 -15.2988842 308.50117828 -16.22558212 308.50178528 C-42.55584145 308.51394224 -68.72506418 308.26021802 -94.93511963 305.48431396 C-97.31033843 305.23722118 -99.68673344 305.00666614 -102.06396484 304.77978516 C-135.40510853 301.58785029 -135.40510853 301.58785029 -151.1875 297.25 C-151.33865496 290.00745242 -150.88807071 282.94977366 -150.12890625 275.75 C-150.0202977 274.67484131 -149.91168915 273.59968262 -149.79978943 272.49194336 C-149.45457309 269.07746239 -149.10298146 265.66368633 -148.75 262.25 C-147.23847283 247.59334062 -145.7609502 232.97735093 -145.1875 218.25 C-145.15969452 217.54447998 -145.13188904 216.83895996 -145.10324097 216.11206055 C-144.90579492 210.90894926 -144.75585708 205.70517395 -144.625 200.5 C-144.60415344 199.68273437 -144.58330688 198.86546875 -144.56182861 198.0234375 C-143.72076376 164.0758862 -143.98607312 130.12687613 -145.12432861 96.19018555 C-145.18245552 94.40493141 -145.23388036 92.61946238 -145.28466797 90.83398438 C-145.97056303 66.73077922 -151.28767306 44.33483952 -158.65429688 21.38867188 C-159.1875 19.25 -159.1875 19.25 -159.1875 15.25 C-107.97976359 0.46189793 -52.87371489 0.0208869 0 0 Z " fill="#FCFCFC" transform="translate(521.1875,421.75)"/>
<path d="M0 0 C1.10395111 -0.0071553 2.20790222 -0.01431061 3.3453064 -0.02168274 C4.54217072 -0.02437164 5.73903503 -0.02706055 6.97216797 -0.02983093 C8.24468414 -0.03640213 9.51720032 -0.04297333 10.82827759 -0.04974365 C15.04029091 -0.0707086 19.25230421 -0.08115042 23.46435547 -0.09111023 C24.92435728 -0.09516294 26.3843589 -0.09928001 27.84436035 -0.10346031 C34.71827341 -0.12250854 41.59217587 -0.13673099 48.46611023 -0.14507228 C56.3433487 -0.15479331 64.22030232 -0.1809784 72.09744072 -0.22157317 C78.21930074 -0.2520131 84.34108054 -0.26656783 90.4630146 -0.26985329 C94.10228276 -0.27217557 97.74124673 -0.28075552 101.38043213 -0.30631447 C118.11661213 -0.41780441 133.99860641 0.31077407 150.33935547 4.14717102 C151.5943132 4.43328751 152.84927094 4.71940399 154.14225769 5.01419067 C157.06251505 5.70376632 159.94913811 6.46645254 162.83935547 7.27217102 C163.89340576 7.56221008 164.94745605 7.85224915 166.03344727 8.15107727 C174.14394738 10.43102831 182.19225241 12.90458895 190.20263672 15.51283264 C192.08352016 16.12493252 193.96725127 16.72826062 195.85107422 17.33125305 C218.98724523 25.04858362 218.98724523 25.04858362 224.33935547 34.14717102 C227.16192567 41.5273879 228.11233921 48.99264692 228.87451172 56.81123352 C228.9986998 58.00211578 229.12288788 59.19299805 229.25083923 60.41996765 C229.6435912 64.20316621 230.02319887 67.98753822 230.40185547 71.77217102 C230.78582776 75.5249021 231.17253765 79.27734222 231.55990601 83.02972412 C231.81072788 85.46175452 232.06010403 87.89393447 232.30801392 90.32626343 C232.92640329 96.35400008 233.59764843 102.36366742 234.39794922 108.36982727 C235.79797703 119.19248177 236.51657661 130.08094839 237.33935547 140.95967102 C237.51459406 143.24858739 237.69005106 145.53748706 237.86572266 147.82637024 C238.20720651 152.28260333 238.54642317 156.73900126 238.88427734 161.19551086 C239.25678348 166.0933089 239.64445083 170.98967235 240.04248047 175.88545227 C242.58044451 207.48182277 242.58044451 207.48182277 239.33935547 219.14717102 C236.37894544 218.0391813 233.55798848 216.7764871 230.74951172 215.33467102 C208.93807472 204.26117224 185.13386515 197.48214599 161.33935547 192.14717102 C160.53546387 191.95961243 159.73157227 191.77205383 158.90332031 191.57881165 C73.81426597 171.85111292 -28.67726822 178.27066265 -108.06103516 215.26582336 C-108.851875 215.63272278 -109.64271484 215.99962219 -110.45751953 216.37763977 C-111.52244629 216.88460388 -111.52244629 216.88460388 -112.60888672 217.40180969 C-114.66064453 218.14717102 -114.66064453 218.14717102 -118.66064453 218.14717102 C-120.19753837 213.53648951 -119.84064719 208.93890727 -119.83251953 204.10810852 C-119.83088806 202.99535553 -119.82925659 201.88260254 -119.82757568 200.73612976 C-119.74116523 188.37239594 -118.88273528 176.09280488 -117.91064453 163.77217102 C-117.72834719 161.37861677 -117.5460556 158.98506207 -117.36376953 156.59150696 C-116.32149731 143.16081176 -115.07531362 129.77869971 -113.41375732 116.41087341 C-111.4245779 100.38545786 -110.24046005 84.29912357 -109.05517578 68.19697571 C-106.626358 35.65202277 -106.626358 35.65202277 -99.96655273 29.61030579 C-95.34214077 26.13662094 -90.86091268 23.54840088 -85.47314453 21.45967102 C-84.64709717 21.1357135 -83.8210498 20.81175598 -82.9699707 20.47798157 C-59.96459665 11.78652335 -35.90782428 5.18630265 -11.66064453 1.14717102 C-10.73812393 0.97699872 -9.81560333 0.80682642 -8.86512756 0.63149738 C-5.8529027 0.17622897 -3.0425322 0.01362833 0 0 Z " fill="#FCFCFC" transform="translate(450.66064453125,81.85282897949219)"/>
<path d="M0 0 C2.05054408 0.59344401 4.09815936 1.19701252 6.14453125 1.8046875 C7.28510986 2.13968262 8.42568848 2.47467773 9.60083008 2.81982422 C23.3704063 7.60055621 34.50521386 19.18501875 41 32 C49.05808257 51.37251358 51.028449 74.24534573 54.90820312 94.77929688 C56.97276802 105.69331665 59.10035136 116.5920266 61.30355835 127.47888184 C64.78561752 144.70518479 68.0191472 161.91278376 70.46875 179.3203125 C70.59962509 180.24829147 70.73050018 181.17627045 70.86534119 182.13237 C71.52388489 186.81406639 72.17307966 191.49677431 72.80688477 196.18188477 C76.60012707 223.85955 88.02131338 245.74711131 101.40917969 270.02661133 C113.52782949 292.02547278 124.23955726 314.30221109 133.73526001 337.52853394 C135.78956581 342.53563364 137.95589903 347.48688292 140.15673828 352.4309082 C150.7917326 376.3586318 156.17405181 399.6619369 157.75 425.8125 C157.81070679 426.76343536 157.87141357 427.71437073 157.93395996 428.69412231 C159.38571467 451.79629962 159.33393685 474.86481796 159 498 C158.97352704 500.03027206 158.94716005 502.06054551 158.92089844 504.09082031 C158.61456961 526.67150148 158.02722412 549.19228294 156.25292969 571.71044922 C156.01002522 574.86961404 155.80176738 578.0292871 155.6015625 581.19140625 C152.49447318 627.04854577 133.39909165 669.79819052 109.58334351 708.48092651 C103.13626546 718.96207557 97.16767534 729.63597455 91.44140625 740.53125 C89.0784999 745.02316575 86.62093103 749.4444644 84.08984375 753.84375 C74.59647999 770.39476693 74.59647999 770.39476693 72 789 C69.62487806 789.0289649 67.25024188 789.04933862 64.875 789.0625 C64.1025293 789.06725342 63.33005859 789.07200684 62.53417969 789.0769043 C57.12527649 789.07948587 51.7393344 788.91948077 46.3359375 788.671875 C44.9897496 788.61311939 43.64355818 788.55444467 42.29736328 788.49584961 C39.62482133 788.37871328 36.95594239 788.24055479 34.28466797 788.09204102 C33.04088379 788.03717529 31.79709961 787.98230957 30.515625 787.92578125 C29.40477539 787.86817627 28.29392578 787.81057129 27.14941406 787.7512207 C22.76875135 788.0972591 19.55492561 789.71316501 16.1875 792.5 C13.60755387 795.75887932 13.85180002 799.1969641 13.7890625 803.171875 C13.76070313 804.39390625 13.73234375 805.6159375 13.703125 806.875 C13.65135951 809.44256817 13.60699576 812.01029706 13.5703125 814.578125 C13.21208244 828.78791756 13.21208244 828.78791756 9 833 C-29.84953302 835.54296259 -29.84953302 835.54296259 -42.70703125 824.5390625 C-51.40121028 815.52757766 -50.99486434 801.62129665 -52.0625 789.875 C-52.23273612 788.07570219 -52.40363891 786.27646733 -52.57519531 784.47729492 C-52.9896053 780.10030283 -53.39120578 775.72226243 -53.78717041 771.34356689 C-53.97912431 769.22987204 -54.17472223 767.11656902 -54.37255859 765.00341797 C-55.39967133 753.97538986 -56.30744833 743.08363157 -56 732 C-55.00371582 731.89510254 -55.00371582 731.89510254 -53.98730469 731.78808594 C-36.57451246 730.17560475 -36.57451246 730.17560475 -20 725 C-18.8553125 724.4946875 -17.710625 723.989375 -16.53125 723.46875 C1.36566609 715.22006425 14.63555333 701.47521426 21.578125 682.9765625 C28.35529755 663.65939526 28.16528077 643.15856372 19.62207031 624.41845703 C16.2736594 617.53227939 12.1309078 611.6533275 7 606 C5.87464844 604.73542969 5.87464844 604.73542969 4.7265625 603.4453125 C-3.76998254 594.39882927 -14.14562838 587.75115293 -26 584 C-26.89074219 583.71382812 -27.78148437 583.42765625 -28.69921875 583.1328125 C-39.55907438 580.15167566 -50.80885387 580.25959214 -62 580 C-63.42029 540.67383201 -63.06843033 501.34743982 -63 462 C-22.08 462 18.84 462 61 462 C60.96519531 471.52230469 60.93039062 481.04460937 60.89453125 490.85546875 C60.87919517 496.90299725 60.86462821 502.95051157 60.85351562 508.99804688 C60.83575128 518.58818402 60.81492773 528.17824179 60.77368164 537.76831055 C60.74364975 544.75435221 60.72439448 551.74032914 60.71773452 558.72643358 C60.71384544 562.42078917 60.70479494 566.1149597 60.68280983 569.8092556 C60.65838637 573.94738118 60.65803878 578.08519112 60.65942383 582.22338867 C60.648638 583.42964905 60.63785217 584.63590942 60.6267395 585.87872314 C60.67107631 598.19250094 63.53914733 608.9474257 68.5625 620.125 C68.96146484 621.0428125 69.36042969 621.960625 69.77148438 622.90625 C71.34128495 626.48088771 72.82877588 629.74316382 75 633 C76.35187151 639.10102644 76.08709946 645.6073037 76.17578125 651.83203125 C76.18785614 652.63567108 76.19993103 653.43931091 76.21237183 654.26730347 C76.26054826 657.6226331 76.30805261 660.97760412 76.32592773 664.33325195 C76.32820787 682.99955328 76.32820787 682.99955328 85 699 C87.74969956 700.43134773 87.74969956 700.43134773 91 700 C94.01539771 698.38594894 96.45780073 696.27206044 99 694 C99.62777344 693.46503906 100.25554687 692.93007813 100.90234375 692.37890625 C105.53158843 688.12833189 109.11900941 683.26329054 112.6875 678.125 C113.13907471 677.47740723 113.59064941 676.82981445 114.0559082 676.16259766 C120.19602124 667.08590882 124.19989432 657.32334067 127.9375 647.0625 C128.370625 645.88333008 128.80375 644.70416016 129.25 643.48925781 C133.62886516 631.46044986 137.51805476 619.31576926 141 607 C134.30749732 608.69106117 127.73812425 610.6920729 121.18359375 612.84765625 C120.39602692 613.10646576 119.60846008 613.36527527 118.79702759 613.63192749 C115.51600499 614.71265197 112.23618475 615.79690094 108.95825195 616.88696289 C91.93104478 622.54020486 91.93104478 622.54020486 83 624 C81.79727181 621.59454362 81.89928528 620.05003047 81.9375 617.375 C81.94652344 616.55773437 81.95554687 615.74046875 81.96484375 614.8984375 C81.98224609 613.95871094 81.98224609 613.95871094 82 613 C93.07738124 608.91296495 104.15633575 604.83022813 115.23730469 600.75292969 C118.13419576 599.68697161 121.03076301 598.62014839 123.92675781 597.55175781 C127.03336854 596.40637781 130.14135825 595.26485333 133.25 594.125 C134.57572021 593.63483398 134.57572021 593.63483398 135.92822266 593.13476562 C141.77030119 591 141.77030119 591 144 591 C145.86327008 552.33782386 147.27362249 513.71203995 147 475 C146.28873962 474.8875293 145.57747925 474.77505859 144.84466553 474.65917969 C137.06084719 473.39889282 129.35353767 471.8852484 121.640625 470.25 C119.7967923 469.86183105 119.7967923 469.86183105 117.91571045 469.46582031 C114.68317453 468.78458362 111.45114207 468.10101952 108.21929932 467.41650391 C105.59026907 466.86046788 102.96060982 466.3074406 100.33093643 465.75445557 C97.16299084 465.08792238 93.99557107 464.4189023 90.828125 463.75 C89.66025452 463.50411133 88.49238403 463.25822266 87.28912354 463.00488281 C81.49460638 461.77617613 75.73442908 460.48482316 70 459 C70 455.04 70 451.08 70 447 C77.20591268 447.67577521 84.18415072 448.93859708 91.26953125 450.3984375 C92.42692307 450.63406403 93.58431488 450.86969055 94.77677917 451.11245728 C97.21526701 451.60983375 99.65335631 452.10916767 102.09106445 452.61035156 C105.78951656 453.37027756 109.48935747 454.12312206 113.18945312 454.875 C115.57039873 455.36155739 117.95126089 455.84852333 120.33203125 456.3359375 C121.42304642 456.55792816 122.51406158 456.77991882 123.63813782 457.00863647 C143.00507234 461.00253617 143.00507234 461.00253617 147 463 C146.51691104 441.41846789 144.65442089 420.23795921 141.125 398.9375 C140.98795654 398.08325439 140.85091309 397.22900879 140.7097168 396.34887695 C138.11041419 381.55770764 133.03830639 367.97850418 126.6875 354.4375 C126.05433622 353.06100748 125.422174 351.68405383 124.79101562 350.30664062 C118.52311795 336.69128733 111.97990648 323.26436818 104.3125 310.375 C103.714375 309.36139404 103.11625 308.34778809 102.5 307.3034668 C101.26835663 305.21696569 100.03481106 303.13158621 98.79931641 301.04736328 C97.08433984 298.14283988 95.38850522 295.22811593 93.69921875 292.30859375 C88.17133526 282.78783679 82.45091641 273.43248893 76.375 264.25 C75.78267578 263.34999268 75.19035156 262.44998535 74.58007812 261.52270508 C74.02513672 260.69536865 73.47019531 259.86803223 72.8984375 259.015625 C72.41036621 258.28633789 71.92229492 257.55705078 71.41943359 256.80566406 C69.94712919 254.73990787 69.94712919 254.73990787 67 253 C64.4893876 252.6881271 64.4893876 252.6881271 61.62800598 252.7215271 C60.51321365 252.71036362 59.39842133 252.69920013 58.24984741 252.68769836 C56.41457993 252.68445808 56.41457993 252.68445808 54.54223633 252.68115234 C53.25432693 252.67110672 51.96641754 252.6610611 50.63948059 252.65071106 C47.10672574 252.62337983 43.57401084 252.60825248 40.04117799 252.59528303 C36.34956412 252.5796661 32.658032 252.55287132 28.96647644 252.5272522 C21.97549511 252.48043888 14.98449844 252.44370717 7.99344033 252.41057932 C0.0345842 252.37237594 -7.92418988 252.32296113 -15.88297689 252.27259517 C-32.25526004 252.16923735 -48.62758777 252.08038721 -65 252 C-65 245.07 -65 238.14 -65 231 C-62.56625 230.9175 -60.1325 230.835 -57.625 230.75 C-34.79503341 229.5898727 -14.4624539 222.16461346 2 206 C3.051875 204.98486328 3.051875 204.98486328 4.125 203.94921875 C18.03840512 189.51949586 23.40574046 169.98595128 23.1484375 150.3828125 C22.55980613 128.08236844 13.2813483 111.305065 -2.1875 95.80859375 C-16.76690878 82.0883287 -34.91323708 78.81215629 -54 76 C-54.12215108 67.8023053 -53.93245144 59.66896953 -53.49609375 51.484375 C-53.44868042 50.56769043 -53.40126709 49.65100586 -53.35241699 48.70654297 C-53.23655618 46.47093941 -53.11905384 44.2354354 -53 42 C-51.14652954 42.02356567 -51.14652954 42.02356567 -49.25561523 42.04760742 C-44.65053888 42.10210151 -40.04549079 42.13642082 -35.44018555 42.16479492 C-33.4508789 42.17983724 -31.46160517 42.20027623 -29.47241211 42.22631836 C-26.60522311 42.26290246 -23.73847441 42.27977218 -20.87109375 42.29296875 C-19.98852402 42.30845261 -19.10595428 42.32393646 -18.19664001 42.33988953 C-12.71891636 42.34136656 -8.70240278 41.93914194 -4 39 C-1.11476369 34.14370923 -0.60036881 29.89836693 -0.48828125 24.31640625 C-0.46135445 23.26585304 -0.46135445 23.26585304 -0.43388367 22.19407654 C-0.38022445 19.98361011 -0.34603068 17.77335388 -0.3125 15.5625 C-0.27928743 14.05270539 -0.24479419 12.54293837 -0.20898438 11.03320312 C-0.12452605 7.35567067 -0.0575045 3.67806409 0 0 Z " fill="#FBFBFB" transform="translate(203,89)"/>
<path d="M0 0 C0.00410889 1.03406982 0.00821777 2.06813965 0.01245117 3.13354492 C0.03427867 6.98251698 0.08860426 10.83047198 0.15258789 14.67895508 C0.17573666 16.34226712 0.19015631 18.0057251 0.19555664 19.66918945 C0.2048698 22.06553751 0.24590551 24.45960059 0.29296875 26.85546875 C0.28706978 27.96513252 0.28706978 27.96513252 0.28105164 29.09721375 C0.39167999 33.04152142 0.86365337 34.82952787 3.35668945 37.9465332 C7.76060756 41.36773531 11.82468384 41.18751931 17.17578125 41.28125 C18.37994942 41.30886414 18.37994942 41.30886414 19.60844421 41.33703613 C22.17638871 41.39575088 24.74440038 41.44854664 27.3125 41.5 C30.6837243 41.56796439 34.05475334 41.64172057 37.42578125 41.71875 C38.57920769 41.73911316 38.57920769 41.73911316 39.75593567 41.7598877 C40.48656723 41.77660522 41.21719879 41.79332275 41.9699707 41.81054688 C42.60489944 41.82307495 43.23982819 41.83560303 43.89399719 41.84851074 C46.61609094 42.04431673 49.30800568 42.55133428 52 43 C52.33 54.22 52.66 65.44 53 77 C48.235625 77.5878125 48.235625 77.5878125 43.375 78.1875 C24.20698773 80.82565259 8.81882483 88.20567663 -5 102 C-5.93585938 102.91845703 -5.93585938 102.91845703 -6.890625 103.85546875 C-20.52490359 118.2574432 -25.4857113 136.78247112 -25.21484375 156.1875 C-24.57573817 176.00374259 -16.82659864 194.42200842 -2.28125 208.1015625 C17.52048449 224.58040319 36.80843761 229.33706415 62 230 C62 237.26 62 244.52 62 252 C18.11 252 -25.78 252 -71 252 C-71.66 253.65 -72.32 255.3 -73 257 C-74.09043567 258.71863251 -75.23300696 260.40483433 -76.4140625 262.0625 C-77.08856445 263.01713135 -77.76306641 263.9717627 -78.45800781 264.95532227 C-79.17311523 265.96006592 -79.88822266 266.96480957 -80.625 268 C-94.13464832 287.23500986 -105.56898205 307.48074679 -115.84082031 328.62402344 C-117.21231432 331.43518175 -118.60340566 334.23640556 -119.9921875 337.0390625 C-128.65341849 354.6405024 -136.66258814 372.5183865 -143.18359375 391.03515625 C-143.4870874 391.89633057 -143.79058105 392.75750488 -144.10327148 393.64477539 C-146.62475307 403.07922175 -147.42577967 412.70871569 -148.0703125 422.421875 C-148.15626678 423.64787415 -148.24222107 424.87387329 -148.33078003 426.13702393 C-148.60091738 430.00766431 -148.86309315 433.8787949 -149.125 437.75 C-149.30806511 440.39326583 -149.49165391 443.03649545 -149.67578125 445.6796875 C-150.12323886 452.11938567 -150.56418203 458.55950418 -151 465 C-150.15307587 464.76244995 -149.30615173 464.5248999 -148.43356323 464.28015137 C-135.87079141 460.7860959 -123.13844576 457.99525285 -110.41772461 455.14404297 C-107.07778393 454.39511148 -103.73988944 453.63743934 -100.40238857 452.87771988 C-97.18491323 452.14711816 -93.9653799 451.42569869 -90.74609375 450.703125 C-89.55543808 450.43131409 -88.36478241 450.15950317 -87.13804626 449.87945557 C-86.02571121 449.63209656 -84.91337616 449.38473755 -83.76733398 449.12988281 C-82.79553696 448.91100403 -81.82373993 448.69212524 -80.82249451 448.46661377 C-78 448 -78 448 -72 448 C-72 452.29 -72 456.58 -72 461 C-72.98766357 461.22550537 -73.97532715 461.45101074 -74.99291992 461.68334961 C-99.37848764 467.25665366 -123.70998483 473.02410544 -148 479 C-148.42835352 517.03779287 -147.35270531 555.09610329 -144 593 C-142.91122559 593.25450928 -141.82245117 593.50901855 -140.70068359 593.77124023 C-135.30420374 595.12276426 -130.06034182 596.89046746 -124.7890625 598.66015625 C-123.21504166 599.18505898 -123.21504166 599.18505898 -121.60922241 599.7205658 C-119.40518398 600.45624754 -117.2016289 601.19337883 -114.99853516 601.93188477 C-111.61606248 603.06549534 -108.23199338 604.19423494 -104.84765625 605.32226562 C-102.70303004 606.03877834 -100.5584955 606.75556549 -98.4140625 607.47265625 C-96.8922789 607.98047386 -96.8922789 607.98047386 -95.3397522 608.49855042 C-94.4047287 608.81235153 -93.4697052 609.12615265 -92.50634766 609.44946289 C-91.27013168 609.86344078 -91.27013168 609.86344078 -90.00894165 610.28578186 C-88 611 -88 611 -86 612 C-86 615.96 -86 619.92 -86 624 C-93.69373266 622.47150039 -101.11138472 620.20824378 -108.58178711 617.85131836 C-110.66435082 617.1947977 -112.74897867 616.54520206 -114.83398438 615.89648438 C-123.63737313 613.14266786 -132.33799819 610.17167756 -141 607 C-135.91816373 626.28094668 -129.31413088 644.87964869 -121 663 C-120.6596875 663.75313477 -120.319375 664.50626953 -119.96875 665.28222656 C-115.72874082 674.58623108 -111.0108579 682.43332634 -104 690 C-103.03513672 691.04994141 -103.03513672 691.04994141 -102.05078125 692.12109375 C-98.32603478 696.00743443 -94.89774093 699.34800829 -89.5 700.5625 C-86.42449952 699.87051239 -85.03521108 698.56739067 -83.19067383 696.04492188 C-76.94815392 685.32371074 -77.4010625 673.73440448 -77.375 661.75 C-77.35855377 659.05959078 -77.3363491 656.36951912 -77.30337524 653.67926025 C-77.28403021 652.01866347 -77.27437871 650.35791275 -77.27645874 648.69720459 C-77.21539468 642.01515302 -76.17736366 635.86911682 -73.16015625 629.81640625 C-72.650896 628.77419922 -72.650896 628.77419922 -72.13134766 627.7109375 C-71.77862793 627.00195312 -71.4259082 626.29296875 -71.0625 625.5625 C-61.32700336 605.26462055 -61.70564898 585.2145966 -61.79721212 563.02552104 C-61.80988031 559.42746811 -61.81090245 555.8294103 -61.81326294 552.2313385 C-61.81943117 545.44617374 -61.83577755 538.66107493 -61.85596192 531.87593895 C-61.88269181 522.68719679 -61.89333128 513.49843607 -61.90496635 504.30966473 C-61.92366263 489.87306061 -61.96353884 475.43659552 -62 461 C-21.08 461 19.84 461 62 461 C62.165 474.509375 62.33 488.01875 62.5 501.9375 C62.55220703 506.12687256 62.60441406 510.31624512 62.65820312 514.63256836 C62.92184656 536.42293841 63.07471726 558.20799241 63 580 C61.82611221 580.02197197 61.82611221 580.02197197 60.62850952 580.04438782 C36.66395349 580.51421564 14.45558533 583.24914745 -4 600 C-4.68320312 600.60328125 -5.36640625 601.2065625 -6.0703125 601.828125 C-18.78545501 613.72137617 -26.67670112 631.16173043 -27.46875 648.515625 C-27.50284078 650.76018196 -27.51270782 653.00522013 -27.5 655.25 C-27.49427979 656.43295654 -27.48855957 657.61591309 -27.48266602 658.8347168 C-27.287247 668.44972738 -25.88012291 676.18868292 -22 685 C-21.61448975 685.91676514 -21.61448975 685.91676514 -21.22119141 686.85205078 C-17.53129503 695.52976289 -12.77096578 702.42446107 -6 709 C-5.31292969 709.69609375 -4.62585938 710.3921875 -3.91796875 711.109375 C13.129946 727.42982771 33.40467815 731.07353899 56 732 C55.41007473 745.77767125 54.48473917 759.50635209 53.32543945 773.24755859 C53.06103111 776.39247118 52.80466281 779.53797338 52.54882812 782.68359375 C49.58963823 818.5037169 49.58963823 818.5037169 42.12890625 825.83984375 C36.09861508 830.36532832 29.31953483 831.76226844 22 833 C20.98808594 833.19464844 19.97617187 833.38929688 18.93359375 833.58984375 C13.16415981 834.19142326 7.47709249 833.96006768 1.6875 833.75 C0.49576172 833.72292969 -0.69597656 833.69585938 -1.92382812 833.66796875 C-3.05884766 833.62800781 -4.19386719 833.58804688 -5.36328125 833.546875 C-6.39751221 833.51432617 -7.43174316 833.48177734 -8.49731445 833.44824219 C-9.7361438 833.2263623 -9.7361438 833.2263623 -11 833 C-14.11077651 828.33383524 -14.12406479 824.07772169 -14.2109375 818.5625 C-14.23929688 817.33789062 -14.26765625 816.11328125 -14.296875 814.8515625 C-14.34895536 812.28400069 -14.39322742 809.71626862 -14.4296875 807.1484375 C-14.47609375 805.31152344 -14.47609375 805.31152344 -14.5234375 803.4375 C-14.54325684 802.32246094 -14.56307617 801.20742188 -14.58349609 800.05859375 C-15.0481291 796.64656423 -15.97199631 794.75852443 -18 792 C-27.85968101 784.92125466 -42.41401139 788.07609964 -53.87304688 788.6418457 C-60.92451391 788.98038932 -67.9396399 789.11989291 -75 789 C-75.02578125 787.98421875 -75.0515625 786.9684375 -75.078125 785.921875 C-75.87717371 763.59759957 -87.36980997 745.98606393 -99.21679688 727.59838867 C-115.33593225 702.40575672 -129.86588067 675.76107085 -141 648 C-141.59022949 646.55125488 -141.59022949 646.55125488 -142.19238281 645.07324219 C-167.98137349 581.35320207 -162.16065349 499.31546136 -159.125 431.8125 C-159.08588501 430.92357056 -159.04677002 430.03464111 -159.00646973 429.11877441 C-158.06445095 408.38758429 -156.03404671 388.39532006 -148.125 369 C-147.40860352 367.21408447 -147.40860352 367.21408447 -146.67773438 365.39208984 C-138.73795913 345.69007976 -130.35937345 326.21152072 -120.68359375 307.29296875 C-117.82795271 301.70375829 -115.12752822 296.04534725 -112.4375 290.375 C-105.60215838 276.03102054 -98.72036411 261.8171907 -90.75 248.0625 C-81.01539337 231.20336762 -75.54761073 215.29195046 -73.13412476 195.92706299 C-70.64131566 176.1859878 -66.89657387 156.68013278 -63.209198 137.13499451 C-62.99192047 135.98314163 -62.77464294 134.83128876 -62.55078125 133.64453125 C-62.22522751 131.9205587 -62.22522751 131.9205587 -61.89309692 130.16175842 C-60.49074275 122.70441393 -59.14701542 115.23901922 -57.85546875 107.76171875 C-57.68867615 106.79648788 -57.52188354 105.83125702 -57.35003662 104.83677673 C-57.18570129 103.88557449 -57.02136597 102.93437225 -56.85205078 101.9543457 C-54.15918838 86.37483535 -51.28202571 70.86455044 -47.8125 55.4375 C-47.6557782 54.72647125 -47.4990564 54.0154425 -47.33758545 53.28286743 C-43.8026262 37.36385339 -38.44894751 23.13853198 -26 12 C-25.13375 11.175 -24.2675 10.35 -23.375 9.5 C-17.41897161 4.60865026 -7.74020404 0 0 0 Z " fill="#FBFBFB" transform="translate(821,89)"/>
<path d="M0 0 C40.59 0.33 81.18 0.66 123 1 C123.63284066 6.69556597 124.12450683 11.77943205 124.12025452 17.42225647 C124.12110894 18.11189954 124.12196337 18.80154261 124.12284368 19.51208395 C124.1244732 21.79201909 124.11901913 24.07187843 124.11352539 26.35180664 C124.11324295 27.99843341 124.11340237 29.64506031 124.1139679 31.29168701 C124.11425363 35.73937047 124.10839312 40.18702671 124.10139394 44.63470387 C124.0951231 49.2911714 124.09455366 53.94763962 124.09336853 58.60411072 C124.09026619 67.41176805 124.08206763 76.2194129 124.07201904 85.02706474 C124.05872855 96.93593866 124.05334913 108.84481602 124.04751682 120.75369549 C124.03812698 139.502473 124.01820073 158.25122418 124 177 C83.08 177 42.16 177 0 177 C0 118.59 0 60.18 0 0 Z " fill="#FCFCFC" transform="translate(759,357)"/>
<path d="M0 0 C40.26 0 80.52 0 122 0 C122.75753732 42.80085857 123.09246584 85.56879106 123.0625 128.375 C123.06164398 129.60652298 123.06078796 130.83804596 123.05990601 132.10688782 C123.04848544 147.40460637 123.02836552 162.70230381 123 178 C107.11044873 178.02332924 91.22090206 178.0409793 75.33133793 178.05181217 C67.95404044 178.05697508 60.57675357 178.06401767 53.19946289 178.07543945 C46.7716782 178.08538646 40.3439012 178.09185347 33.91610903 178.09408849 C30.51060722 178.09539557 27.10512742 178.09848125 23.69963264 178.10573006 C19.90398959 178.11293606 16.10839288 178.11399113 12.31274414 178.11352539 C11.17554932 178.11712067 10.03835449 178.12071594 8.86669922 178.12442017 C7.83879776 178.1230455 6.8108963 178.12167084 5.75184631 178.12025452 C4.85309815 178.12117631 3.95434999 178.1220981 3.02836704 178.12304783 C1 178 1 178 0 177 C-0.09709071 174.72176255 -0.12186604 172.44044577 -0.12025452 170.16014099 C-0.12110894 169.4364978 -0.12196337 168.71285461 -0.12284368 167.96728283 C-0.12450062 165.52430654 -0.11897365 163.08139778 -0.11352539 160.63842773 C-0.11324354 158.89446006 -0.11340121 157.15049226 -0.1139679 155.40652466 C-0.11425595 150.65672505 -0.10835797 145.90695047 -0.10139394 141.15715671 C-0.09516169 136.19901578 -0.0945567 131.24087434 -0.09336853 126.2827301 C-0.09025483 116.88690172 -0.08204093 107.49108491 -0.07201904 98.09526163 C-0.0587742 85.40354024 -0.05335831 72.71181571 -0.04751682 60.02008915 C-0.03810106 40.01338409 -0.0181824 20.00670346 0 0 Z " fill="#FBFBFB" transform="translate(140,357)"/>
<path d="M0 0 C12.21623374 0.01139425 24.43246819 0.01672997 36.64870596 0.021703 C61.67834116 0.03202049 86.70796691 0.04948788 111.73759389 0.07202661 C111.43430063 1.48539244 111.12797486 2.89810769 110.8204186 4.310552 C110.5650426 5.49071641 110.5650426 5.49071641 110.30450749 6.69472253 C109.4231985 10.39041698 108.18907936 13.93578695 106.90946889 17.50952661 C106.63798024 18.27450464 106.36649159 19.03948267 106.08677602 19.82764184 C105.51480586 21.43195736 104.9398809 23.03522229 104.36210561 24.6374563 C103.4912718 27.06178759 102.63957033 29.49230451 101.78837514 31.92358911 C98.93356166 39.94670855 96.14151625 47.3569255 90.73759389 54.07202661 C89.97446889 55.02077661 89.21134389 55.96952661 88.42509389 56.94702661 C81.67800233 62.28193622 72.76605131 63.19498083 64.42153859 63.20573938 C63.69477738 63.20800494 62.96801618 63.21027049 62.2192319 63.2126047 C59.78905701 63.21892403 57.35893819 63.21811665 54.928756 63.21729028 C53.1839636 63.22028318 51.43917186 63.22368601 49.694381 63.22746789 C44.95641561 63.23630173 40.21846828 63.23864583 35.48049545 63.23928368 C32.51695864 63.23999488 29.5534264 63.24213058 26.58989072 63.2447809 C16.24076603 63.25403437 5.89165422 63.25811604 -4.45747447 63.25732934 C-14.08616261 63.25672951 -23.71479456 63.26726285 -33.34346849 63.28307301 C-41.62224728 63.29617945 -49.90100779 63.30151189 -58.17979687 63.30087394 C-63.11868519 63.30061973 -68.05752362 63.30342753 -72.99640155 63.31405199 C-77.647873 63.32378453 -82.29924744 63.32377701 -86.95072246 63.31653535 C-88.65016073 63.31549569 -90.34960521 63.31781533 -92.04903293 63.32389581 C-120.81035892 63.42006681 -120.81035892 63.42006681 -130.16084361 55.45483911 C-138.94852605 46.20666676 -143.09001215 32.93901975 -147.69648814 21.26807153 C-148.65171836 18.84827065 -149.61464528 16.43163828 -150.57881236 14.01538599 C-151.1899266 12.47845036 -151.80062009 10.94134735 -152.41084361 9.40405786 C-152.69825419 8.68128152 -152.98566478 7.95850519 -153.28178477 7.21382654 C-155.26240611 2.18934437 -155.26240611 2.18934437 -155.26240611 1.07202661 C-103.51432375 -0.23022069 -51.76045192 -0.04917218 0 0 Z " fill="#F8F8F8" transform="translate(531.2624061107635,918.9279733896255)"/>
<path d="M0 0 C0.02784744 2.50008123 0.04722847 4.99983176 0.0625 7.5 C0.07087891 8.17675781 0.07925781 8.85351562 0.08789062 9.55078125 C0.12339411 17.43255387 -0.50413734 25.06619737 -1 33 C-121.12 33 -241.24 33 -365 33 C-366.125 20.625 -366.125 20.625 -366.09765625 16.33203125 C-366.09282227 14.96401367 -366.09282227 14.96401367 -366.08789062 13.56835938 C-366.07951172 12.65892578 -366.07113281 11.74949219 -366.0625 10.8125 C-366.05573242 9.38454102 -366.05573242 9.38454102 -366.04882812 7.92773438 C-366.03722353 5.61841902 -366.02090252 3.30924663 -366 1 C-327.17222321 0.87156281 -288.34444339 0.74407884 -249.51665946 0.61781773 C-244.8996154 0.60280312 -240.28257136 0.58778088 -235.66552734 0.57275391 C-234.7466203 0.56976329 -233.82771325 0.56677268 -232.88096054 0.56369144 C-218.13495996 0.51568199 -203.38896147 0.46705825 -188.64296369 0.41819459 C-173.43499816 0.36781428 -158.22703048 0.31812395 -143.01906073 0.26903296 C-134.5095559 0.24154575 -126.00005225 0.21376875 -117.49055099 0.18519592 C-78.32684589 0.05386178 -39.16397827 -0.03586883 0 0 Z " fill="#FCFCFC" transform="translate(694,991)"/>
<path d="M0 0 C0.81840762 12.2943012 -1.28118091 22.60032792 -9.2265625 32.3203125 C-20.26254012 42.77289042 -39.20862806 42.7991895 -53.46826172 44.25268555 C-56.43961452 44.55632919 -59.40923344 44.87375001 -62.37890625 45.19335938 C-88.60807028 47.96952853 -114.6659098 49.33948782 -141.02685547 49.26074219 C-144.84101463 49.2494098 -148.65489247 49.2561009 -152.46904182 49.26762581 C-174.04336592 49.32268969 -195.47875677 48.48579819 -217 47 C-217.9874823 46.93321045 -218.9749646 46.8664209 -219.99237061 46.79760742 C-224.95818206 46.45712125 -229.91697128 46.06674737 -234.875 45.625 C-235.56173798 45.56408173 -236.24847595 45.50316345 -236.95602417 45.44039917 C-245.71466627 44.65048548 -254.41101655 43.66404217 -263.0625 42.0625 C-263.85833496 41.91699707 -264.65416992 41.77149414 -265.47412109 41.62158203 C-272.96450465 40.08446749 -280.46997264 37.45925919 -286 32 C-292.13560963 22.30490577 -294.34675251 13.33880711 -294 2 C-288.34677934 3.16963186 -282.90204616 4.59740969 -277.40673828 6.35986328 C-193.66382867 33.15700638 -94.30764486 33.47763047 -3.49609375 1.296875 C-1 0 -1 0 0 0 Z " fill="#FBFBFB" transform="translate(657,851)"/>
<path d="M0 0 C2.03352962 1.44477438 3.8789166 2.98322935 5.73828125 4.64453125 C6.62773438 5.36189453 6.62773438 5.36189453 7.53515625 6.09375 C14.75804888 12.43775082 20.82672004 23.98873475 21.73828125 33.64453125 C22.67431751 48.55177543 20.91899559 63.31564648 10.734375 74.9296875 C-0.15797078 85.35438337 -13.87335282 88.26563069 -28.56640625 88.0234375 C-38.50098973 87.00477513 -47.89348084 83.50344396 -55.26171875 76.64453125 C-56.16277344 75.89429688 -56.16277344 75.89429688 -57.08203125 75.12890625 C-66.26272264 66.94179618 -70.51829529 54.34878092 -71.54296875 42.3515625 C-71.92583198 28.7439651 -67.41635811 17.99650564 -58.26171875 7.95703125 C-43.3033459 -6.34215907 -18.10809738 -10.85234852 0 0 Z " fill="#000101" transform="translate(896.26171875,201.35546875)"/>
<path d="M0 0 C9.1589997 5.93776318 15.02375402 14.83110821 17.9375 25.3125 C20.66242016 40.2598776 18.70447277 55.07965806 10.38671875 67.96484375 C2.38670368 78.34180342 -7.72325349 83.00403223 -20.375 85.25 C-33.65677536 86.87354544 -47.89493823 82.56362263 -58.515625 74.65625 C-66.91341208 67.81360868 -71.68039605 58.99002325 -73.375 48.25 C-74.65126265 34.77804011 -74.32615807 21.77483996 -66.1875 10.4375 C-49.57314015 -8.98689957 -21.90348407 -12.03704981 0 0 Z " fill="#000102" transform="translate(180.375,706.75)"/>
<path d="M0 0 C9.90013708 8.72862086 14.19477687 20.18866589 15.25390625 33.09375 C15.747431 46.46667861 11.0838433 58.04406368 2.19140625 68.03125 C-7.7763763 77.48095654 -20.55288023 81.57048806 -34.08203125 81.24609375 C-46.30676133 80.21509242 -57.98507025 76.18322088 -66.44140625 66.9765625 C-76.26493842 54.51864952 -79.34939136 40.6963685 -78 25 C-75.24955906 13.8995657 -68.91106938 2.24099294 -59 -4 C-39.17041771 -13.83262437 -18.38269077 -13.65185124 0 0 Z " fill="#000101" transform="translate(901,710)"/>
<path d="M0 0 C8.83194307 8.13194084 14.98024088 18.98899729 15.83984375 31.0234375 C16.31135007 46.32925799 11.53760034 57.53202222 1.62890625 69.0703125 C-10.26449099 79.10667052 -23.13729646 82.35474477 -38.37109375 81.0703125 C-49.81509469 78.98272552 -60.43082866 73.50462505 -67.80859375 64.37109375 C-75.93155081 52.41003948 -78.5444036 41.4140254 -77.37109375 27.0703125 C-75.70898909 19.04310248 -72.33193773 12.53065593 -67.37109375 6.0703125 C-66.93152344 5.45542969 -66.49195312 4.84054688 -66.0390625 4.20703125 C-59.59325016 -4.17066721 -49.65746761 -9.14857389 -39.55859375 -11.6171875 C-24.585617 -13.0851264 -11.76460536 -9.57448937 0 0 Z " fill="#000102" transform="translate(181.37109375,207.9296875)"/>
<path d="M0 0 C30.86734606 -0.02310073 61.73468909 -0.04076485 92.60204182 -0.05106533 C96.33145563 -0.05231453 100.06086942 -0.05360899 103.7902832 -0.05493164 C104.90295384 -0.05532511 104.90295384 -0.05532511 106.03810266 -0.05572652 C116.28521407 -0.05944268 126.53232139 -0.06554461 136.77943017 -0.07373433 C154.56519247 -0.08794631 172.35095046 -0.09695339 190.13671875 -0.09765625 C190.84197636 -0.09769482 191.54723397 -0.09773339 192.27386302 -0.09777313 C256.18578391 -0.10010982 320.09140603 0.37214565 384 1 C384 6.28 384 11.56 384 17 C350.24434392 17.1297198 316.48868048 17.25729464 282.73300618 17.38218227 C278.67739144 17.39718879 274.62177675 17.41221219 270.56616211 17.42724609 C269.75932318 17.43023671 268.95248426 17.43322732 268.12119567 17.43630856 C256.90480837 17.47791773 245.68842482 17.52042546 234.4720438 17.56369197 C215.07642292 17.63850839 195.68079592 17.71146409 176.28515625 17.78125 C175.52429484 17.78399162 174.76343343 17.78673324 173.97951561 17.78955793 C115.9861532 17.99815946 57.99376847 18.06285605 0 18 C0 12.06 0 6.12 0 0 Z " fill="#FAFAFA" transform="translate(318,10)"/>
<path d="M0 0 C1.43855257 1.22474934 2.85505944 2.47580015 4.25 3.75 C5.02214844 4.430625 5.79429687 5.11125 6.58984375 5.8125 C12.3001639 11.1332642 16.09762573 16.62122658 19.25 23.75 C19.66378906 24.6678125 20.07757812 25.585625 20.50390625 26.53125 C25.43897935 39.59973625 25.50631812 56.89604371 20.5625 69.9765625 C13.03163793 85.88999127 -0.03972407 98.73430066 -16.75 104.75 C-33.66633351 108.6730797 -51.91889312 106.35065621 -66.75 97.375 C-68.43955715 96.19888612 -70.10828223 94.99201851 -71.75 93.75 C-72.84054687 92.93208984 -72.84054687 92.93208984 -73.953125 92.09765625 C-86.92043412 81.58027767 -93.39109316 65.65214845 -95.10546875 49.375 C-95.77320177 33.49378222 -89.64382471 19.39207535 -79.375 7.5 C-59.77894428 -13.33507421 -23.49392426 -17.61022845 0 0 Z M-72.15234375 17.40625 C-80.44798602 29.57589637 -83.46880168 41.43007954 -81.25 56.04296875 C-78.43291816 68.41572023 -72.63230526 79.05988602 -62.1796875 86.60546875 C-50.38724581 93.56747879 -36.98275079 95.53018991 -23.6875 92.5625 C-11.29036115 89.10283334 -1.67799532 82.98513282 5.125 71.875 C11.39667966 60.24838273 13.18263573 48.43415419 10.125 35.41796875 C5.90391034 22.54741413 -0.49608202 13.9117791 -12.5625 7.4375 C-32.4145707 -1.7966064 -57.46380614 -0.65058111 -72.15234375 17.40625 Z " fill="#F9F9F9" transform="translate(904.75,697.25)"/>
<path d="M0 0 C13.09852335 10.07578719 23.94867174 23.22452671 26.5390625 39.953125 C27.69258001 58.82542786 24.18067332 75.59825122 11.9765625 90.703125 C0.25684239 103.03608628 -15.81988307 109.13054885 -32.5703125 110.140625 C-47.48278862 110.44341639 -59.36748829 105.63438672 -70.21484375 95.23828125 C-83.9680874 81.24585076 -90.74400123 66.92732642 -90.77783203 47.27539062 C-90.66850719 40.23001167 -89.44089183 34.38011114 -86.4609375 27.953125 C-86.06003906 27.045625 -85.65914063 26.138125 -85.24609375 25.203125 C-77.77528061 9.95833529 -64.86397187 -0.57558477 -48.8984375 -6.046875 C-32.6402363 -11.02217092 -14.36639416 -9.26562229 0 0 Z M-66.4609375 18.953125 C-76.07857022 30.68989713 -79.79201098 42.91348194 -78.4609375 57.953125 C-76.3326187 69.40245446 -70.91015042 80.00082388 -61.76171875 87.390625 C-49.7803284 95.52739264 -37.7355946 98.36820873 -23.4609375 96.953125 C-13.20341251 94.87085926 -4.39418891 89.79864633 2.5390625 81.953125 C3.38791016 80.99986328 3.38791016 80.99986328 4.25390625 80.02734375 C13.121814 69.47209625 15.39153742 57.45064458 14.5390625 43.953125 C12.40707847 31.54064172 5.34522451 20.6823787 -4.4609375 12.953125 C-24.8478358 -0.05778644 -49.27407663 0.79342294 -66.4609375 18.953125 Z " fill="#F9F9F9" transform="translate(182.4609375,192.046875)"/>
<path d="M0 0 C11.81567572 10.81604156 18.4202399 23.14989546 19.51953125 39.19140625 C20.03346655 55.55826883 15.01832618 71.5513945 4.43359375 84.17578125 C-7.22745125 96.08638169 -22.24286868 102.15638879 -38.75390625 102.55078125 C-55.54365638 102.56187702 -72.41920119 95.21278223 -84.47265625 83.609375 C-95.03767329 71.72373083 -99.12833251 55.19617398 -98.97265625 39.53125 C-97.64859242 23.44019653 -90.74218813 9.72771466 -78.69140625 -0.88671875 C-54.8492663 -19.59457015 -23.35060733 -19.83867599 0 0 Z M-78.44921875 15.296875 C-86.54305896 27.13220738 -87.40959095 41.30076144 -85.38671875 55.20800781 C-83.08736254 66.32351804 -76.99655488 75.65137248 -67.69140625 82.11328125 C-55.07564338 89.3673449 -40.70802394 92.10281686 -26.50390625 88.86328125 C-15.8382774 85.87086543 -6.33412755 80.58826441 -0.5703125 70.6953125 C4.11614179 61.89303132 6.70006027 53.75285174 6.62109375 43.80078125 C6.6161792 43.06021484 6.61126465 42.31964844 6.60620117 41.55664062 C6.35069005 29.51223952 2.25427257 18.69870828 -5.91796875 9.73828125 C-16.44870769 0.0889698 -30.29459301 -2.9073066 -44.18359375 -2.33203125 C-57.47901331 -1.31455365 -70.10422041 4.75954658 -78.44921875 15.296875 Z " fill="#F8F9F9" transform="translate(192.69140625,701.88671875)"/>
<path d="M0 0 C13.33124677 10.46803782 21.86344292 21.89326603 24.29296875 38.9921875 C25.83776884 57.68289234 23.21601643 73.76145431 11.109375 88.68359375 C1.22632092 99.31315109 -11.71575726 106.4737165 -26.30859375 107.30078125 C-43.88127286 107.92021692 -59.48816081 104.39463664 -73.01953125 92.5546875 C-74.59954223 91.05205462 -76.16386361 89.53263351 -77.70703125 87.9921875 C-78.57134766 87.14527344 -78.57134766 87.14527344 -79.453125 86.28125 C-90.8803451 74.11200262 -93.47945411 56.9603938 -93.1171875 40.87890625 C-91.53357914 25.8723318 -83.08499247 12.59177519 -71.70703125 2.9921875 C-50.83299975 -12.44175966 -21.6387 -16.04948312 0 0 Z M-69.890625 17.796875 C-78.62855706 28.35755848 -81.8689696 39.38782604 -80.70703125 52.9921875 C-78.6066129 66.76743119 -72.61273724 78.21599806 -61.70703125 86.9921875 C-58.49145457 89.0693302 -55.27299364 90.61290016 -51.70703125 91.9921875 C-50.9284375 92.30929687 -50.14984375 92.62640625 -49.34765625 92.953125 C-36.99006411 97.3550124 -22.65536769 95.57611686 -10.6640625 90.7734375 C0.08509175 85.43592643 6.34652755 77.19241131 10.29296875 65.9921875 C14.5500086 52.32954126 13.07309791 38.09002874 7.0078125 25.27734375 C0.78019451 14.01905942 -7.87909483 6.98417074 -19.96875 2.88671875 C-38.27112123 -1.49284553 -56.99301159 4.09153226 -69.890625 17.796875 Z " fill="#FAFAFA" transform="translate(905.70703125,194.0078125)"/>
<path d="M0 0 C0.9715654 -0.00571014 1.9431308 -0.01142029 2.94413757 -0.01730347 C4.01377747 -0.01842133 5.08341736 -0.01953918 6.18547058 -0.02069092 C7.87098274 -0.02813828 7.87098274 -0.02813828 9.59054565 -0.03573608 C13.32165633 -0.05038559 17.05272449 -0.05716445 20.78385925 -0.06268311 C23.36977134 -0.06843237 25.95568341 -0.07419013 28.54159546 -0.07995605 C33.27531624 -0.08912845 38.00901994 -0.09542545 42.74274808 -0.09845281 C49.7083559 -0.10293196 56.67376732 -0.12047215 63.63931543 -0.1494534 C69.6727921 -0.17368462 75.70617596 -0.18139764 81.73970604 -0.18312836 C84.3061753 -0.18615938 86.87264363 -0.19420297 89.43908119 -0.20731354 C93.02787333 -0.22433755 96.61618588 -0.22250237 100.20500183 -0.21600342 C101.26856903 -0.2252182 102.33213623 -0.23443298 103.42793274 -0.243927 C112.42477551 -0.19280096 112.42477551 -0.19280096 116.389328 3.14044189 C119.16528272 6.73483918 118.79314315 11.15886739 118.826828 15.51544189 C118.8596991 16.25794189 118.89257019 17.00044189 118.92643738 17.76544189 C118.9658379 21.82011353 118.61623034 24.39051307 116.04948425 27.61700439 C112.59253229 30.89628629 110.28272566 31.26424435 105.70309448 31.28761292 C104.74001373 31.29476822 103.77693298 31.30192352 102.78466797 31.30929565 C101.72954514 31.31198456 100.6744223 31.31467346 99.58732605 31.31744385 C97.91863464 31.32730064 97.91863464 31.32730064 96.2162323 31.33735657 C92.52783647 31.35709818 88.83948134 31.36875335 85.15104675 31.37872314 C83.89254221 31.38279867 82.63403767 31.3868742 81.33739662 31.39107323 C75.36478976 31.40978481 69.39219586 31.42435067 63.41956681 31.4326852 C56.53146021 31.44245672 49.64367505 31.4687766 42.75568169 31.50918609 C36.78469661 31.54301056 30.8137901 31.55483225 24.84270668 31.55888939 C22.30496349 31.56376569 19.76722399 31.57540916 17.22954369 31.59392738 C13.67927206 31.61822702 10.12984256 31.6173702 6.57951355 31.6104126 C5.53046341 31.62322266 4.48141327 31.63603271 3.40057373 31.64923096 C-2.569715 31.60655996 -6.07972342 31.15852135 -10.610672 27.14044189 C-12.28751486 23.78675616 -11.92154994 20.07454551 -11.985672 16.39044189 C-12.02305481 15.59122314 -12.06043762 14.79200439 -12.09895325 13.96856689 C-12.16180349 9.72268368 -11.94675073 6.98821159 -9.2122345 3.62481689 C-5.86050334 0.42406462 -4.4839078 0.01574588 0 0 Z " fill="#000101" transform="translate(457.6106719970703,935.8595581054688)"/>
<path d="M0 0 C1.59790277 -0.00270684 3.19580392 -0.00659904 4.79370117 -0.01159668 C8.11490831 -0.01743593 11.43568013 -0.00911202 14.75683594 0.00976562 C18.96563903 0.0325522 23.17342104 0.01939865 27.38218689 -0.00452423 C30.67353698 -0.01913518 33.96465397 -0.01430723 37.25601196 -0.00401306 C38.80579761 -0.00138773 40.35560604 -0.00446344 41.90536499 -0.01393127 C55.55589053 -0.07907124 68.97955371 1.72071001 81.1875 8.28125 C81.84177979 8.61979004 82.49605957 8.95833008 83.17016602 9.30712891 C96.86145553 16.62916106 96.86145553 16.62916106 99.8125 22.53125 C98.64614014 22.37760986 97.47978027 22.22396973 96.27807617 22.06567383 C89.32693202 21.30053788 82.34855337 21.16298383 75.36328125 20.98046875 C74.59798914 20.95965429 73.83269703 20.93883984 73.04421425 20.91739464 C52.52540678 20.37188503 32.00259996 20.34391519 11.4777832 20.34594727 C6.02544381 20.34605035 0.57323038 20.33219334 -4.87907887 20.31517506 C-9.15421625 20.30400844 -13.42932303 20.30202918 -17.7044735 20.30255699 C-19.71561826 20.30139183 -21.7267642 20.29705449 -23.73789406 20.28922462 C-36.31133268 20.24468422 -48.95255314 20.20726576 -61.1875 23.53125 C-61.1875 22.87125 -61.1875 22.21125 -61.1875 21.53125 C-55.28443994 16.14247169 -48.51292923 11.88482106 -41.4375 8.21875 C-40.85613281 7.90599121 -40.27476562 7.59323242 -39.67578125 7.27099609 C-27.14690693 1.06284616 -13.7273008 -0.08386324 0 0 Z " fill="#F9F9F9" transform="translate(491.1875,44.46875)"/>
<path d="M0 0 C30.03 0 60.06 0 91 0 C89.87563746 3.37308761 88.92657267 4.15123097 86.25 6.375 C81.97271792 10.00536219 78.03004721 13.68585513 74.55957031 18.11352539 C70.97429023 21.66542209 67.74425516 21.6916189 62.85369873 21.70542908 C61.8036969 21.67759842 60.75369507 21.64976776 59.671875 21.62109375 C58.01735321 21.61191673 58.01735321 21.61191673 56.32940674 21.60255432 C52.8020025 21.57567516 49.27680016 21.50673335 45.75 21.4375 C43.42450232 21.41595561 41.09897861 21.39704985 38.7734375 21.38085938 C28.63911933 21.28867209 18.51234403 21.0604347 8.390625 20.53515625 C7.64335144 20.49764755 6.89607788 20.46013885 6.12615967 20.42149353 C1.12490914 20.12490914 1.12490914 20.12490914 0 19 C0 12.73 0 6.46 0 0 Z " fill="#F9F9FA" transform="translate(338,47)"/>
<path d="M0 0 C5.94 0.66 11.88 1.32 18 2 C18 19.16 18 36.32 18 54 C4.47 54 -9.06 54 -23 54 C-20.83010555 47.49031666 -18.58691519 41.20627133 -16 34.875 C-15.6191626 33.94155762 -15.2383252 33.00811523 -14.84594727 32.04638672 C-10.33411848 21.15826229 -5.19135445 10.57677822 0 0 Z " fill="#F5F5F5" transform="translate(663,921)"/>
<path d="M0 0 C29.7 0 59.4 0 90 0 C90 13.5 90 13.5 89 19 C87.92218262 19.05534912 86.84436523 19.11069824 85.73388672 19.16772461 C81.66708204 19.37693981 77.60037453 19.58799682 73.53369141 19.79956055 C71.78632085 19.89021843 70.03892562 19.98040195 68.29150391 20.07006836 C50.47861604 20.85289709 50.47861604 20.85289709 32.73828125 22.51953125 C27.17642022 22.99517501 23.50651038 23.18326693 18.99609375 19.640625 C16.60044171 17.10444589 14.49648132 14.35290223 12.35888672 11.59960938 C9.38094653 8.09413613 5.63900447 5.45405242 2.01953125 2.64453125 C1.35308594 2.10183594 0.68664062 1.55914062 0 1 C0 0.67 0 0.34 0 0 Z " fill="#F8F8F8" transform="translate(592,47)"/>
<path d="M0 0 C0.74958984 0.00451172 1.49917969 0.00902344 2.27148438 0.01367188 C4.11852383 0.02543646 5.96552213 0.04337135 7.8125 0.0625 C15.0548241 17.64269121 22.06418459 35.28639559 28.8125 53.0625 C15.75522076 53.20598659 2.8836194 52.68493426 -10.1875 52.0625 C-10.5175 35.2325 -10.8475 18.4025 -11.1875 1.0625 C-7.42449626 -0.19183458 -3.91539091 -0.04445422 0 0 Z " fill="#FAFAFA" transform="translate(352.1875,921.9375)"/>
<path d="M0 0 C0.027526 2.43758009 0.04708568 4.87483541 0.0625 7.3125 C0.07087891 7.98345703 0.07925781 8.65441406 0.08789062 9.34570312 C0.11607053 15.3480236 -0.44874188 20.93616065 -1 27 C-12.88 27 -24.76 27 -37 27 C-37 11.16753927 -37 11.16753927 -33.5078125 7.3828125 C-25.46284234 0.6731071 -10.0735336 -5.0367668 0 0 Z " fill="#FAFAFA" transform="translate(189,88)"/>
<path d="M0 0 C14.19 0 28.38 0 43 0 C43.495 10.395 43.495 10.395 44 21 C38.40928224 21.93178629 33.31836287 22.21811967 27.6875 22.25 C26.78837891 22.270625 25.88925781 22.29125 24.96289062 22.3125 C17.62126846 22.35496781 11.43830308 21.09288014 5.125 17.25 C-0.01743115 11.8050729 0 7.47452309 0 0 Z " fill="#F9F9F9" transform="translate(748,894)"/>
<path d="M0 0 C13.53 0 27.06 0 41 0 C41 8.0115933 40.89798034 11.56566259 37 18 C33.62967854 21.37032146 30.47443635 21.94782246 25.79199219 22.11352539 C24.55610352 22.10828857 23.32021484 22.10305176 22.046875 22.09765625 C21.38665344 22.0962413 20.72643188 22.09482635 20.04620361 22.09336853 C17.94742206 22.08779245 15.84874905 22.07524447 13.75 22.0625 C12.32291821 22.0574819 10.89583475 22.05291954 9.46875 22.04882812 C5.97913168 22.03783088 2.48957644 22.0205828 -1 22 C-1.02792366 20.39594109 -1.0467943 18.79172506 -1.0625 17.1875 C-1.07410156 16.29417969 -1.08570313 15.40085937 -1.09765625 14.48046875 C-0.9618884 9.64170251 -0.43825372 4.82079094 0 0 Z " fill="#F9F9FA" transform="translate(232,893)"/>
<path d="M0 0 C11.49645023 -0.41387221 21.958289 -0.45794759 31.3046875 7.12890625 C35.26625042 11.5012303 36.85072527 16.83551643 37.25 22.625 C37.1675 23.40875 37.085 24.1925 37 25 C33.28832638 26.1486567 29.69663773 26.20542433 25.828125 26.31640625 C24.8044986 26.3475779 24.8044986 26.3475779 23.76019287 26.37937927 C21.59022644 26.44452052 19.42014376 26.50359404 17.25 26.5625 C15.77472779 26.60571897 14.29946713 26.64933432 12.82421875 26.69335938 C9.21626834 26.80016518 5.60818867 26.90153153 2 27 C-0.27306378 12.28787016 -0.27306378 12.28787016 -0.125 5.625 C-0.10695313 4.54476562 -0.08890625 3.46453125 -0.0703125 2.3515625 C-0.04710937 1.57554688 -0.02390625 0.79953125 0 0 Z " fill="#FAFAFA" transform="translate(835,88)"/>
<path d="M0 0 C0.66 0.33 1.32 0.66 2 1 C1.33392561 5.40958108 -0.26624729 9.26572186 -2.0625 13.3125 C-2.34416016 13.95767578 -2.62582031 14.60285156 -2.91601562 15.26757812 C-3.6062743 16.84698358 -4.30253198 18.42376493 -5 20 C-6.27813896 16.16558311 -5.58667173 13.93727872 -4.75 10 C-4.49734375 8.7625 -4.2446875 7.525 -3.984375 6.25 C-3.05343758 3.17642884 -2.49917603 1.90948281 0 0 Z " fill="#E7E8E8" transform="translate(673,407)"/>
<path d="M0 0 C0.33 0 0.66 0 1 0 C1.33 4.62 1.66 9.24 2 14 C2.33 14 2.66 14 3 14 C3.3690205 23.41002278 3.3690205 23.41002278 1 28 C0.67 28 0.34 28 0 28 C0 18.76 0 9.52 0 0 Z " fill="#EDEEEF" transform="translate(759,357)"/>
<path d="M0 0 C3.09732871 3.09732871 2.9887814 5.55305094 3.09765625 9.890625 C3.09105099 11.34378224 3.07918727 12.79692356 3.0625 14.25 C3.05798828 14.99507812 3.05347656 15.74015625 3.04882812 16.5078125 C3.03709246 18.3385764 3.0191585 20.16929873 3 22 C2.67 22 2.34 22 2 22 C1.67 20.02 1.34 18.04 1 16 C0.67 16 0.34 16 0 16 C0 10.72 0 5.44 0 0 Z " fill="#1F2121" transform="translate(375,549)"/>
<path d="M0 0 C1.93242285 3.34520258 2.5463853 6.44767482 3.125 10.25 C3.29257812 11.32765625 3.46015625 12.4053125 3.6328125 13.515625 C3.75398438 14.33546875 3.87515625 15.1553125 4 16 C0.70271893 11.79758295 -2 7.47038401 -2 2 C-1.34 2 -0.68 2 0 2 C0 1.34 0 0.68 0 0 Z " fill="#E4E5E5" transform="translate(352,412)"/>
<path d="M0 0 C4.29 0 8.58 0 13 0 C13.29296875 5.95703125 13.29296875 5.95703125 13 8 C12.01 8.99 11.02 9.98 10 11 C10 8.03 10 5.06 10 2 C6.7 1.67 3.4 1.34 0 1 C0 0.67 0 0.34 0 0 Z " fill="#F0F0EF" transform="translate(864,821)"/>
<path d="M0 0 C3.3 0.33 6.6 0.66 10 1 C5.60171741 3.1991413 2.81449408 3.51855059 -2 4 C-1.34 2.68 -0.68 1.36 0 0 Z " fill="#F3F4F3" transform="translate(367,83)"/>
<path d="M0 0 C0.33 0 0.66 0 1 0 C1.08096803 1.45742463 1.13917774 2.91612807 1.1875 4.375 C1.22230469 5.18710937 1.25710938 5.99921875 1.29296875 6.8359375 C1.19628906 7.55007813 1.09960938 8.26421875 1 9 C0.01 9.66 -0.98 10.32 -2 11 C-2.05399736 9.54207116 -2.09279177 8.08357288 -2.125 6.625 C-2.15980469 5.40683594 -2.15980469 5.40683594 -2.1953125 4.1640625 C-2 2 -2 2 0 0 Z " fill="#E0E1E1" transform="translate(360,624)"/>
</svg>
